<svg width="60" height="60" viewBox="0 0 60 60" fill="none" xmlns="http://www.w3.org/2000/svg">
<g clip-path="url(#clip0_882_7880)">
<path fill-rule="evenodd" clip-rule="evenodd" d="M2.5896e-05 47V13C-0.0033868 11.2919 0.330539 9.59988 0.982641 8.0211C1.63474 6.44233 2.59219 5.00787 3.80003 3.80003C5.00787 2.59219 6.44233 1.63474 8.0211 0.982641C9.59988 0.330539 11.2919 -0.0033868 13 2.5896e-05H47C48.7082 -0.0033868 50.4002 0.330539 51.9789 0.982641C53.5577 1.63474 54.9922 2.59219 56.2 3.80003C57.4079 5.00787 58.3653 6.44233 59.0174 8.0211C59.6695 9.59988 60.0034 11.2919 60 13V47C60.0034 48.7082 59.6695 50.4002 59.0174 51.9789C58.3653 53.5577 57.4079 54.9922 56.2 56.2C54.9922 57.4079 53.5577 58.3653 51.9789 59.0174C50.4002 59.6695 48.7082 60.0034 47 60H13C9.5527 59.9984 6.24702 58.6283 3.80939 56.1907C1.37177 53.753 0.00161587 50.4473 2.5896e-05 47Z" fill="#084005"/>
<path d="M30.05 56C44.4094 56 56.05 44.3594 56.05 30C56.05 15.6406 44.4094 4 30.05 4C15.6906 4 4.04999 15.6406 4.04999 30C4.04999 44.3594 15.6906 56 30.05 56Z" fill="#F6F5F8"/>
<path fill-rule="evenodd" clip-rule="evenodd" d="M30.05 29.75C30.1124 29.7312 30.178 29.7254 30.2427 29.7331C30.3074 29.7407 30.3699 29.7616 30.4262 29.7944C30.4825 29.8273 30.5314 29.8714 30.5699 29.9239C30.6084 29.9765 30.6357 30.0364 30.65 30.1L36.9 52.25C36.9188 52.3124 36.9246 52.378 36.9169 52.4427C36.9093 52.5074 36.8884 52.5699 36.8556 52.6262C36.8227 52.6825 36.7787 52.7314 36.7261 52.7699C36.6735 52.8084 36.6136 52.8357 36.55 52.85C36.4876 52.8688 36.422 52.8746 36.3573 52.867C36.2926 52.8593 36.2301 52.8384 36.1738 52.8056C36.1175 52.7728 36.0686 52.7287 36.0301 52.6761C35.9916 52.6235 35.9643 52.5636 35.95 52.5L29.7 30.35C29.6758 30.2878 29.666 30.2209 29.6712 30.1544C29.6765 30.0878 29.6967 30.0233 29.7303 29.9656C29.764 29.908 29.8102 29.8586 29.8655 29.8213C29.9209 29.784 29.9839 29.7596 30.05 29.75Z" fill="black"/>
<path fill-rule="evenodd" clip-rule="evenodd" d="M36 7.74998C36.064 7.76736 36.1195 7.80733 36.1563 7.86248C36.193 7.91764 36.2086 7.98425 36.2 8.04998L29.35 33.65C29.3326 33.714 29.2927 33.7695 29.2375 33.8062C29.1824 33.843 29.1157 33.8585 29.05 33.85C28.9 33.85 28.85 33.7 28.85 33.55L35.7 7.94998C35.7009 7.91463 35.7102 7.88001 35.7273 7.84904C35.7444 7.81807 35.7686 7.79166 35.7981 7.77205C35.8275 7.75244 35.8612 7.74019 35.8963 7.73635C35.9315 7.73251 35.967 7.73719 36 7.74998Z" fill="#FE9124"/>
<path fill-rule="evenodd" clip-rule="evenodd" d="M14.85 25.9C14.8643 25.8364 14.8916 25.7765 14.9301 25.7239C14.9686 25.6713 15.0176 25.6273 15.0738 25.5944C15.1301 25.5616 15.1926 25.5407 15.2573 25.5331C15.322 25.5254 15.3876 25.5312 15.45 25.55L29.95 29.45C30.0136 29.4643 30.0735 29.4916 30.1261 29.5301C30.1787 29.5686 30.2227 29.6175 30.2556 29.6738C30.2884 29.7301 30.3093 29.7926 30.317 29.8573C30.3246 29.922 30.3188 29.9876 30.3 30.05C30.2857 30.1136 30.2584 30.1735 30.2199 30.2261C30.1814 30.2787 30.1325 30.3227 30.0762 30.3556C30.0199 30.3884 29.9574 30.4093 29.8927 30.4169C29.828 30.4246 29.7624 30.4188 29.7 30.4L15.2 26.5C15.0808 26.4566 14.9805 26.3729 14.9165 26.2633C14.8526 26.1537 14.8291 26.0251 14.85 25.9Z" fill="black"/>
<path d="M30.05 31.5C30.8784 31.5 31.55 30.8284 31.55 30C31.55 29.1716 30.8784 28.5 30.05 28.5C29.2216 28.5 28.55 29.1716 28.55 30C28.55 30.8284 29.2216 31.5 30.05 31.5Z" fill="black"/>
</g>
<defs>
<clipPath id="clip0_882_7880">
<rect width="60" height="60" fill="white"/>
</clipPath>
</defs>
</svg>
