<svg width="124" height="99" viewBox="0 0 124 99" fill="none" xmlns="http://www.w3.org/2000/svg">
<path d="M7.50835 51.1914C10.5415 50.959 14.9084 50.7006 20.2053 50.5886C21.7379 50.5539 23.3575 50.5405 25.0304 50.5318C25.2367 51.1376 26.8517 55.9135 28.5913 57.8855C30.1687 59.705 32.6903 61.6989 35.2443 62.0236C36.3817 62.206 37.4605 62.0062 38.2434 61.4683C39.0263 60.9304 39.4492 60.0983 39.4192 59.1549L39.3728 58.7638C38.7698 55.7117 32.8708 52.3402 29.6689 51.3743C29.4777 51.2814 27.0024 50.7949 25.7562 50.5264C26.772 50.5249 27.7837 50.532 28.8333 50.547C30.3564 50.5604 31.9696 50.6175 33.52 50.7178L35.9928 50.8661C36.8351 50.9068 37.6515 51.0296 38.4927 51.1013C39.7212 51.2348 41.0005 51.4351 42.2728 51.6215C42.5014 52.9541 43.2552 56.8694 44.5064 58.7305C45.7576 60.5916 48.0296 62.9276 50.5114 63.5437C51.6413 63.86 52.7782 63.8043 53.6733 63.3886C54.5684 62.9729 55.149 62.2311 55.2881 61.3255L55.3134 60.9586C55.2544 57.9602 49.837 53.9696 46.7651 52.593C46.6639 52.5438 45.9925 52.3229 45.1932 52.0504C46.4714 52.2818 47.6821 52.4803 48.9479 52.7373C52.5344 53.4267 56.1683 54.276 59.8301 55.0967L62.1065 55.5919C62.2888 56.7336 63.0729 60.9585 64.3668 62.9035C65.6607 64.8485 67.89 67.1006 70.3719 67.7167C71.5018 68.033 72.6386 67.9773 73.5337 67.5616C74.4289 67.1459 75.0095 66.4041 75.1485 65.4985L75.1738 65.1317C75.1149 62.1332 69.6975 58.1426 66.6256 56.766C66.5131 56.7114 65.7138 56.4389 64.805 56.1342C66.7978 56.5548 68.7515 56.9985 70.7448 57.3035C74.1219 57.9159 77.4948 58.3372 80.8398 58.5644C80.8974 58.961 81.6843 63.9243 83.134 66.0925C84.4249 68.015 86.6572 70.2896 89.139 70.9057C89.6976 71.0644 90.2642 71.133 90.8064 71.1074C91.3485 71.0819 91.8554 70.9628 92.298 70.7569C92.7405 70.551 93.1099 70.2624 93.3849 69.9078C93.6599 69.5532 93.8351 69.1395 93.9003 68.6905L93.9079 68.3888C93.8602 65.3958 88.4428 61.4053 85.3709 60.0286C85.1571 59.9248 82.2382 58.9489 81.1849 58.6267L81.3069 58.6333C84.5812 58.7927 87.8021 58.7048 90.9322 58.3707C93.726 58.0868 96.4607 57.6572 99.1221 57.0842C101.608 56.5754 103.83 55.9805 105.757 55.4211C106.8 55.1064 107.75 54.81 108.624 54.5288L108.599 54.5799C108.599 54.5799 112.947 54.9335 113.214 54.9266C116.345 54.8365 121.922 53.0599 122.14 50.1221C122.161 49.6641 122.071 49.187 121.876 48.7181C121.681 48.2492 121.384 47.7977 121.002 47.3894C120.621 46.9811 120.162 46.624 119.653 46.3384C119.143 46.0529 118.592 45.8446 118.032 45.7253C117.869 45.6877 117.705 45.6609 117.543 45.6454C114.957 45.2424 112.684 46.602 111.314 47.9901C109.944 49.3782 108.885 53.3606 108.653 54.3536C107.726 54.6299 106.738 54.9184 105.63 55.2229C103.671 55.7349 101.439 56.2933 98.9473 56.757C98.2784 56.8744 97.5451 56.9814 96.8454 57.1049C97.9267 56.6824 99.3963 56.0905 99.5176 56.0126C101.95 54.6984 105.366 50.7871 103.934 47.7533C103.441 46.8208 102.564 46.0132 101.494 45.5071C100.424 45.001 99.2477 44.8376 98.2233 45.0527C98.0855 45.0826 97.9515 45.1195 97.822 45.1631C95.5947 45.7975 94.5439 48.0462 94.2347 49.9706C93.9255 51.895 95.3829 56.3943 95.7095 57.3534C94.1133 57.6377 92.4761 57.834 90.8071 57.9413C87.6877 58.215 84.4827 58.2404 81.2308 58.0172C81.0402 58.0088 80.8466 57.9779 80.6601 57.961C81.249 57.8365 84.4091 56.9707 84.6187 56.8829C87.2477 55.8223 91.234 52.2829 90.1379 49.2439C89.7613 48.2993 88.982 47.4385 87.9682 46.8474C86.9544 46.2563 85.7876 45.9825 84.7197 46.0849C84.5757 46.1007 84.4346 46.1235 84.2971 46.1534C81.9519 46.5726 80.579 48.6542 80.0099 50.4839C79.3503 52.5856 80.5185 57.7659 80.5535 57.9514C77.3078 57.6571 74.0424 57.1892 70.777 56.5504C68.3621 56.0827 65.9199 55.528 63.4594 54.9539C64.2372 54.7842 67.1735 53.9782 67.3677 53.8935C70.0008 52.8243 73.983 49.2934 72.8798 46.2404C72.6758 45.739 72.3571 45.2566 71.944 44.8237C71.5309 44.3909 71.0323 44.017 70.4797 43.7258C69.9271 43.4345 69.3326 43.2323 68.7339 43.1318C68.1351 43.0313 67.545 43.0348 67.001 43.142C64.66 43.5527 63.2717 45.6374 62.7026 47.4671C62.0637 49.5262 63.1715 54.4875 63.2628 54.9005C62.1498 54.6441 61.0368 54.3877 59.9166 54.1172C56.2726 53.2314 52.6173 52.3401 49.0117 51.5467C47.7542 51.2727 46.4844 51.0243 45.2902 50.7917C46.416 50.5067 48.4799 49.9508 48.6279 49.8753C51.261 48.8061 55.232 45.2698 54.14 42.2223C53.759 41.2787 52.9765 40.4203 51.9613 39.8325C50.9461 39.2447 49.7796 38.9745 48.7136 39.0803L48.3063 39.1457C45.9652 39.5564 44.577 41.6411 44.0078 43.4708C43.4387 45.3005 44.1595 49.4841 44.4093 50.6586C42.3467 50.2672 40.3012 49.9264 38.2985 49.6695C37.4276 49.5728 36.5396 49.4257 35.6717 49.3516C34.8038 49.2775 34.0118 49.2191 33.1765 49.1924C31.4846 49.097 29.9217 49.0223 28.366 48.9615L26.062 48.8952C27.2968 48.7579 29.2496 48.5167 29.4437 48.432C32.3417 47.7337 37.0422 44.8993 36.4812 41.8465C36.2658 40.8888 35.6169 39.9601 34.6771 39.2646C33.7373 38.569 32.5835 38.1636 31.4695 38.1373L31.0338 38.1468C28.56 38.2297 26.766 40.033 25.8511 41.7158C24.835 43.5495 25.0162 48.2713 25.0402 48.8516C23.1666 48.8154 21.3421 48.7925 19.6467 48.7902C14.2693 48.8104 9.81772 48.9855 6.74488 49.1565C3.67203 49.3275 1.88672 49.4816 1.88672 49.4816C1.56833 49.5176 1.3079 49.664 1.16211 49.889C1.01633 50.1141 0.996971 50.3994 1.10828 50.6831C1.15567 50.8246 1.23645 50.9626 1.34534 51.088C1.45422 51.2134 1.58879 51.3234 1.74033 51.411C1.89187 51.4985 2.05698 51.5616 2.22496 51.5961C2.39293 51.6306 2.56003 51.6358 2.71538 51.6113C2.71538 51.6113 4.46809 51.4098 7.50835 51.1914Z" fill="#084005"/>
<path d="M96.3312 57.6765C96.3312 57.6765 98.771 62.9585 100.862 64.9224C102.636 66.5951 105.36 68.4027 107.87 68.4743C108.992 68.5431 110.003 68.2297 110.68 67.6031C111.358 66.9764 111.646 66.0876 111.482 65.1322L111.393 64.7417C110.385 61.693 104.203 58.8473 100.971 58.1722C100.691 58.1201 96.3477 57.6424 96.3312 57.6765Z" fill="#084005"/>
<g opacity="0.2">
<path d="M7.50835 51.1914C10.5415 50.959 14.9084 50.7006 20.2053 50.5886C21.7379 50.5539 23.3575 50.5405 25.0304 50.5318C25.2367 51.1376 26.8517 55.9135 28.5913 57.8855C30.1687 59.705 32.6903 61.6989 35.2443 62.0236C36.3817 62.206 37.4605 62.0062 38.2434 61.4683C39.0263 60.9304 39.4492 60.0983 39.4192 59.1549L39.3728 58.7638C38.7698 55.7117 32.8708 52.3402 29.6689 51.3743C29.4777 51.2814 27.0024 50.7949 25.7562 50.5264C26.772 50.5249 27.7837 50.532 28.8333 50.547C30.3564 50.5604 31.9696 50.6175 33.52 50.7178L35.9928 50.8661C36.8351 50.9068 37.6515 51.0296 38.4927 51.1013C39.7212 51.2348 41.0005 51.4351 42.2728 51.6215C42.5014 52.9541 43.2552 56.8694 44.5064 58.7305C45.7576 60.5916 48.0296 62.9276 50.5114 63.5437C51.6413 63.86 52.7782 63.8043 53.6733 63.3886C54.5684 62.9729 55.149 62.2311 55.2881 61.3255L55.3134 60.9586C55.2544 57.9602 49.837 53.9696 46.7651 52.593C46.6639 52.5438 45.9925 52.3229 45.1932 52.0504C46.4714 52.2818 47.6821 52.4803 48.9479 52.7373C52.5344 53.4267 56.1683 54.276 59.8301 55.0967L62.1065 55.5919C62.2888 56.7336 63.0729 60.9585 64.3668 62.9035C65.6607 64.8485 67.89 67.1006 70.3719 67.7167C71.5018 68.033 72.6386 67.9773 73.5337 67.5616C74.4289 67.1459 75.0095 66.4041 75.1485 65.4985L75.1738 65.1317C75.1149 62.1332 69.6975 58.1426 66.6256 56.766C66.5131 56.7114 65.7138 56.4389 64.805 56.1342C66.7978 56.5548 68.7515 56.9985 70.7448 57.3035C74.1219 57.9159 77.4948 58.3372 80.8398 58.5644C80.8974 58.961 81.6843 63.9243 83.134 66.0925C84.4249 68.015 86.6572 70.2896 89.139 70.9057C89.6976 71.0644 90.2642 71.133 90.8064 71.1074C91.3485 71.0819 91.8554 70.9628 92.298 70.7569C92.7405 70.551 93.1099 70.2624 93.3849 69.9078C93.6599 69.5532 93.8351 69.1395 93.9003 68.6905L93.9079 68.3888C93.8602 65.3958 88.4428 61.4053 85.3709 60.0286C85.1571 59.9248 82.2382 58.9489 81.1849 58.6267L81.3069 58.6333C84.5812 58.7927 87.8021 58.7048 90.9322 58.3707C93.726 58.0868 96.4607 57.6572 99.1221 57.0842C101.608 56.5754 103.83 55.9805 105.757 55.4211C106.8 55.1064 107.75 54.81 108.624 54.5288L108.599 54.5799C108.599 54.5799 112.947 54.9335 113.214 54.9266C116.345 54.8365 121.922 53.0599 122.14 50.1221C122.161 49.6641 122.071 49.187 121.876 48.7181C121.681 48.2492 121.384 47.7977 121.002 47.3894C120.621 46.9811 120.162 46.624 119.653 46.3384C119.143 46.0529 118.592 45.8446 118.032 45.7253C117.869 45.6877 117.705 45.6609 117.543 45.6454C114.957 45.2424 112.684 46.602 111.314 47.9901C109.944 49.3782 108.885 53.3606 108.653 54.3536C107.726 54.6299 106.738 54.9184 105.63 55.2229C103.671 55.7349 101.439 56.2933 98.9473 56.757C98.2784 56.8744 97.5451 56.9814 96.8454 57.1049C97.9267 56.6824 99.3963 56.0905 99.5176 56.0126C101.95 54.6984 105.366 50.7871 103.934 47.7533C103.441 46.8208 102.564 46.0132 101.494 45.5071C100.424 45.001 99.2477 44.8376 98.2233 45.0527C98.0855 45.0826 97.9515 45.1195 97.822 45.1631C95.5947 45.7975 94.5439 48.0462 94.2347 49.9706C93.9255 51.895 95.3829 56.3943 95.7095 57.3534C94.1133 57.6377 92.4761 57.834 90.8071 57.9413C87.6877 58.215 84.4827 58.2404 81.2308 58.0172C81.0402 58.0088 80.8466 57.9779 80.6601 57.961C81.249 57.8365 84.4091 56.9707 84.6187 56.8829C87.2477 55.8223 91.234 52.2829 90.1379 49.2439C89.7613 48.2993 88.982 47.4385 87.9682 46.8474C86.9544 46.2563 85.7876 45.9825 84.7197 46.0849C84.5757 46.1007 84.4346 46.1235 84.2971 46.1534C81.9519 46.5726 80.579 48.6542 80.0099 50.4839C79.3503 52.5856 80.5185 57.7659 80.5535 57.9514C77.3078 57.6571 74.0424 57.1892 70.777 56.5504C68.3621 56.0827 65.9199 55.528 63.4594 54.9539C64.2372 54.7842 67.1735 53.9782 67.3677 53.8935C70.0008 52.8243 73.983 49.2934 72.8798 46.2404C72.6758 45.739 72.3571 45.2566 71.944 44.8237C71.5309 44.3909 71.0323 44.017 70.4797 43.7258C69.9271 43.4345 69.3326 43.2323 68.7339 43.1318C68.1351 43.0313 67.545 43.0348 67.001 43.142C64.66 43.5527 63.2717 45.6374 62.7026 47.4671C62.0637 49.5262 63.1715 54.4875 63.2628 54.9005C62.1498 54.6441 61.0368 54.3877 59.9166 54.1172C56.2726 53.2314 52.6173 52.3401 49.0117 51.5467C47.7542 51.2727 46.4844 51.0243 45.2902 50.7917C46.416 50.5067 48.4799 49.9508 48.6279 49.8753C51.261 48.8061 55.232 45.2698 54.14 42.2223C53.759 41.2787 52.9765 40.4203 51.9613 39.8325C50.9461 39.2447 49.7796 38.9745 48.7136 39.0803L48.3063 39.1457C45.9652 39.5564 44.577 41.6411 44.0078 43.4708C43.4387 45.3005 44.1595 49.4841 44.4093 50.6586C42.3467 50.2672 40.3012 49.9264 38.2985 49.6695C37.4276 49.5728 36.5396 49.4257 35.6717 49.3516C34.8038 49.2775 34.0118 49.2191 33.1765 49.1924C31.4846 49.097 29.9217 49.0223 28.366 48.9615L26.062 48.8952C27.2968 48.7579 29.2496 48.5167 29.4437 48.432C32.3417 47.7337 37.0422 44.8993 36.4812 41.8465C36.2658 40.8888 35.6169 39.9601 34.6771 39.2646C33.7373 38.569 32.5835 38.1636 31.4695 38.1373L31.0338 38.1468C28.56 38.2297 26.766 40.033 25.8511 41.7158C24.835 43.5495 25.0162 48.2713 25.0402 48.8516C23.1666 48.8154 21.3421 48.7925 19.6467 48.7902C14.2693 48.8104 9.81772 48.9855 6.74488 49.1565C3.67203 49.3275 1.88672 49.4816 1.88672 49.4816C1.56833 49.5176 1.3079 49.664 1.16211 49.889C1.01633 50.1141 0.996971 50.3994 1.10828 50.6831C1.15567 50.8246 1.23645 50.9626 1.34534 51.088C1.45422 51.2134 1.58879 51.3234 1.74033 51.411C1.89187 51.4985 2.05698 51.5616 2.22496 51.5961C2.39293 51.6306 2.56003 51.6358 2.71538 51.6113C2.71538 51.6113 4.46809 51.4098 7.50835 51.1914Z" fill="#548404"/>
<path d="M96.3312 57.6765C96.3312 57.6765 98.771 62.9585 100.862 64.9224C102.636 66.5951 105.36 68.4027 107.87 68.4743C108.992 68.5431 110.003 68.2297 110.68 67.6031C111.358 66.9764 111.646 66.0876 111.482 65.1322L111.393 64.7417C110.385 61.693 104.203 58.8473 100.971 58.1722C100.691 58.1201 96.3477 57.6424 96.3312 57.6765Z" fill="black"/>
</g>
</svg>
