<svg width="32" height="32" viewBox="0 0 32 32" fill="none" xmlns="http://www.w3.org/2000/svg">
<path d="M27.3333 7.99999C23.8533 8.93332 19.7733 9.33332 16 9.33332C12.2267 9.33332 8.14667 8.93332 4.66667 7.99999L4 10.6667C6.48 11.3333 9.33333 11.7733 12 12V29.3333H14.6667V21.3333H17.3333V29.3333H20V12C22.6667 11.7733 25.52 11.3333 28 10.6667L27.3333 7.99999ZM16 7.99999C17.4667 7.99999 18.6667 6.79999 18.6667 5.33332C18.6667 3.86666 17.4667 2.66666 16 2.66666C14.5333 2.66666 13.3333 3.86666 13.3333 5.33332C13.3333 6.79999 14.5333 7.99999 16 7.99999Z" fill="black"/>
</svg>
