<svg width="34" height="34" viewBox="0 0 34 34" fill="none" xmlns="http://www.w3.org/2000/svg">
<path d="M7.82133 23.7548C8.01093 23.8446 8.2164 23.8961 8.42594 23.9063C8.63548 23.9165 8.84497 23.8852 9.0424 23.8143C9.23983 23.7433 9.42131 23.6341 9.57642 23.4928C9.73154 23.3516 9.85725 23.1811 9.94633 22.9912L12.0116 18.5938H21.9884L24.0577 22.9912C24.2377 23.3737 24.5622 23.6691 24.96 23.8123C25.3578 23.9555 25.7961 23.9348 26.1787 23.7548C26.5612 23.5749 26.8566 23.2503 26.9998 22.8525C27.143 22.4547 27.1223 22.0164 26.9423 21.6338L18.4423 3.57133C18.3136 3.29753 18.1097 3.06602 17.8542 2.90385C17.5988 2.74169 17.3025 2.65558 17 2.65558C16.6975 2.65558 16.4012 2.74169 16.1458 2.90385C15.8903 3.06602 15.6864 3.29753 15.5577 3.57133L7.05766 21.6338C6.96849 21.8232 6.91752 22.0284 6.90764 22.2375C6.89777 22.4466 6.92919 22.6556 7.0001 22.8525C7.07102 23.0495 7.18005 23.2306 7.32096 23.3854C7.46186 23.5402 7.63189 23.6658 7.82133 23.7548ZM17 7.99266L20.489 15.4063H13.511L17 7.99266ZM30.2812 28.6875C30.2812 29.1102 30.1133 29.5156 29.8145 29.8145C29.5156 30.1133 29.1102 30.2813 28.6875 30.2813H5.3125C4.88981 30.2813 4.48443 30.1133 4.18555 29.8145C3.88666 29.5156 3.71875 29.1102 3.71875 28.6875C3.71875 28.2648 3.88666 27.8594 4.18555 27.5606C4.48443 27.2617 4.88981 27.0938 5.3125 27.0938H28.6875C29.1102 27.0938 29.5156 27.2617 29.8145 27.5606C30.1133 27.8594 30.2812 28.2648 30.2812 28.6875Z" fill="black"/>
</svg>
