<svg width="86" height="61" viewBox="0 0 86 61" fill="none" xmlns="http://www.w3.org/2000/svg">
<g clip-path="url(#clip0_1366_4322)">
<path d="M59.5 45.5C59.5 47.1355 58.8503 48.704 57.6938 49.8605C56.5373 51.017 54.9688 51.6667 53.3333 51.6667H6.66667C5.03117 51.6667 3.46265 51.017 2.30617 49.8605C1.1497 48.704 0.5 47.1355 0.5 45.5V15.5C0.5 13.8645 1.1497 12.296 2.30617 11.1395C3.46265 9.98304 5.03117 9.33334 6.66667 9.33334H53.3333C54.9688 9.33334 56.5373 9.98304 57.6938 11.1395C58.8503 12.296 59.5 13.8645 59.5 15.5V45.5Z" fill="#009B3A" stroke="black"/>
<path d="M54.5467 30.5L30 49.04L5.45337 30.5L30 11.9583L54.5467 30.5Z" fill="#FEDF01"/>
<path d="M29.96 41.1367C35.9044 41.1367 40.7233 36.3177 40.7233 30.3733C40.7233 24.4289 35.9044 19.61 29.96 19.61C24.0156 19.61 19.1967 24.4289 19.1967 30.3733C19.1967 36.3177 24.0156 41.1367 29.96 41.1367Z" fill="#002776"/>
<path d="M20.4617 25.3117C19.9027 26.3651 19.5241 27.5048 19.3417 28.6833C26 28.2 35.0367 31.835 38.915 36.3417C39.585 35.335 40.0817 34.2083 40.3867 33.0017C35.6 28.3217 27.1917 25.285 20.4617 25.3117Z" fill="#CBE9D4"/>
<path d="M20 30.8883H21.6667V32.555H20V30.8883ZM21.6667 34.2217H23.3333V35.8883H21.6667V34.2217Z" fill="#88C9F9"/>
<path d="M25 30.8883H26.6667V32.555H25V30.8883ZM28.3333 32.555H30V34.2217H28.3333V32.555ZM35 35.8883H36.6667V37.555H35V35.8883ZM30 37.555H31.6667V39.2217H30V37.555ZM35 27.555H36.6667V29.2217H35V27.555Z" fill="#55ACEE"/>
<path d="M31.6666 34.2217H33.3333V35.8883H31.6666V34.2217Z" fill="#3B88C3"/>
</g>
<path d="M68 27.5L74 33.5L80 27.5" stroke="black" stroke-width="2" stroke-linecap="round" stroke-linejoin="round"/>
<defs>
<clipPath id="clip0_1366_4322">
<rect width="60" height="60" fill="white" transform="translate(0 0.5)"/>
</clipPath>
</defs>
</svg>
