<svg width="32" height="32" viewBox="0 0 32 32" fill="none" xmlns="http://www.w3.org/2000/svg">
<g clip-path="url(#clip0_1366_4335)">
<path d="M11.5738 21.905C11.6926 21.961 11.8213 21.9931 11.9525 21.9993C12.0838 22.0056 12.2149 21.9859 12.3386 21.9415C12.4622 21.897 12.5759 21.8286 12.6731 21.7402C12.7702 21.6518 12.8491 21.5451 12.905 21.4262L14.9875 17H25.0125L27.095 21.4262C27.151 21.5451 27.2298 21.6517 27.327 21.7401C27.4242 21.8285 27.5379 21.8969 27.6615 21.9413C27.7851 21.9858 27.9163 22.0054 28.0475 21.9992C28.1787 21.993 28.3074 21.961 28.4263 21.905C28.5451 21.849 28.6518 21.7702 28.7401 21.673C28.8285 21.5758 28.8969 21.4621 28.9413 21.3385C28.9858 21.2149 29.0055 21.0837 28.9992 20.9525C28.993 20.8213 28.961 20.6926 28.905 20.5737L20.905 3.57373C20.8242 3.40194 20.6963 3.25668 20.536 3.15493C20.3757 3.05318 20.1898 2.99915 20 2.99915C19.8102 2.99915 19.6243 3.05318 19.464 3.15493C19.3037 3.25668 19.1758 3.40194 19.095 3.57373L11.095 20.5737C11.039 20.6926 11.0069 20.8213 11.0007 20.9525C10.9944 21.0837 11.0141 21.2149 11.0585 21.3386C11.103 21.4622 11.1714 21.5758 11.2598 21.673C11.3482 21.7702 11.4549 21.849 11.5738 21.905ZM20 6.34873L24.0713 15H15.9288L20 6.34873ZM32 27C32 27.2652 31.8946 27.5196 31.7071 27.7071C31.5196 27.8946 31.2652 28 31 28H9C8.73478 28 8.48043 27.8946 8.29289 27.7071C8.10536 27.5196 8 27.2652 8 27C8 26.7348 8.10536 26.4804 8.29289 26.2929C8.48043 26.1053 8.73478 26 9 26H31C31.2652 26 31.5196 26.1053 31.7071 26.2929C31.8946 26.4804 32 26.7348 32 27Z" fill="black"/>
<line x1="1" x2="1" y2="32" stroke="black" stroke-width="2"/>
</g>
<defs>
<clipPath id="clip0_1366_4335">
<rect width="32" height="32" fill="white"/>
</clipPath>
</defs>
</svg>
