<svg width="56" height="56" viewBox="0 0 56 56" fill="none" xmlns="http://www.w3.org/2000/svg">
<path d="M53.8933 19.2266C57.2267 15.8933 55.7067 12 53.8933 10.1066L45.8933 2.10664C42.5333 -1.22669 38.6667 0.293307 36.7733 2.10664L32.24 6.66664H25.3333C20.2667 6.66664 17.3333 9.33331 15.84 12.4L4 24.24V34.9066L2.10667 36.7733C-1.22666 40.1333 0.293337 44 2.10667 45.8933L10.1067 53.8933C11.5467 55.3333 13.0933 55.8666 14.56 55.8666C16.4533 55.8666 18.1867 54.9333 19.2267 53.8933L26.4267 46.6666H36C40.5333 46.6666 42.8267 43.84 43.6533 41.0666C46.6667 40.2666 48.32 37.9733 48.9867 35.7333C53.12 34.6666 54.6667 30.7466 54.6667 28V20H53.0933L53.8933 19.2266ZM49.3333 28C49.3333 29.2 48.8267 30.6666 46.6667 30.6666H44V33.3333C44 34.5333 43.4933 36 41.3333 36H38.6667V38.6666C38.6667 39.8666 38.16 41.3333 36 41.3333H24.24L15.4933 50.08C14.6667 50.8533 14.1867 50.4 13.8933 50.1066L5.92 42.16C5.14667 41.3333 5.6 40.8533 5.89334 40.56L9.33334 37.0933V26.4266L14.6667 21.0933V25.3333C14.6667 28.56 16.8 33.3333 22.6667 33.3333C28.5333 33.3333 30.6667 28.56 30.6667 25.3333H49.3333V28ZM50.1067 15.44L45.5733 20H25.3333V25.3333C25.3333 26.5333 24.8267 28 22.6667 28C20.5067 28 20 26.5333 20 25.3333V17.3333C20 16.1066 20.4533 12 25.3333 12H34.4267L40.5067 5.91997C41.3333 5.14664 41.8133 5.59997 42.1067 5.89331L50.08 13.84C50.8533 14.6666 50.4 15.1466 50.1067 15.44Z" fill="#084005"/>
</svg>
