<svg width="123" height="101" viewBox="0 0 123 101" fill="none" xmlns="http://www.w3.org/2000/svg">
<path d="M115.841 50.7691C112.802 50.8923 108.428 50.9934 103.131 50.9148C101.598 50.8943 99.979 50.8495 98.3068 50.798C98.1224 50.1852 96.6803 45.3543 95.0127 43.321C93.5018 41.446 91.0535 39.3626 88.5129 38.9464C87.3827 38.7232 86.2975 38.884 85.4957 39.3934C84.694 39.9028 84.2414 40.7192 84.2375 41.663L84.2698 42.0555C84.7626 45.1274 90.5366 48.7089 93.7016 49.7893C93.8894 49.889 96.3456 50.4642 97.5814 50.7774C96.5661 50.7422 95.5554 50.6988 94.507 50.6461C92.9853 50.5779 91.3753 50.4628 89.8295 50.3068L87.3636 50.0697C86.5232 49.9987 85.7118 49.8466 84.8737 49.7447C83.6509 49.5672 82.3795 49.3209 81.1148 49.0889C80.9343 47.7489 80.3218 43.8091 79.1384 41.9042C77.9549 39.9993 75.7684 37.5831 73.3103 36.8782C72.1925 36.5214 71.0544 36.5362 70.1449 36.9194C69.2354 37.3026 68.6285 38.023 68.4569 38.9231L68.4185 39.2888C68.3696 42.2874 73.64 46.4703 76.6603 47.9565C76.7597 48.0093 77.4227 48.2542 78.2117 48.5552C76.9427 48.2781 75.7399 48.0361 74.4842 47.7338C70.9248 46.9159 67.3237 45.9364 63.6939 44.9845L61.4368 44.4077C61.2956 43.2602 60.6639 39.0099 59.4409 37.0196C58.2178 35.0293 56.0709 32.6985 53.6128 31.9936C52.495 31.6368 51.3569 31.6516 50.4474 32.0348C49.5379 32.418 48.931 33.1384 48.7594 34.0385L48.721 34.4042C48.672 37.4028 53.9424 41.5856 56.9628 43.0719C57.0732 43.1305 57.8622 43.4316 58.7595 43.7687C56.7831 43.2768 54.8466 42.7631 52.8656 42.3866C49.5126 41.6531 46.1571 41.1108 42.8225 40.7634C42.7791 40.365 42.1713 35.3766 40.8005 33.1577C39.5796 31.19 37.4306 28.8366 34.9725 28.1316C34.42 27.9529 33.8562 27.864 33.3135 27.87C32.7708 27.8761 32.2599 27.9769 31.8102 28.1667C31.3606 28.3565 30.9811 28.6317 30.6935 28.9762C30.4059 29.3207 30.2159 29.7278 30.1346 30.1741L30.1162 30.4754C30.0562 33.4681 35.3266 37.651 38.347 39.1372C38.5568 39.2486 41.4388 40.3288 42.4798 40.6887L42.3582 40.6777C39.0917 40.4007 35.8697 40.3727 32.7296 40.594C29.9274 40.7773 27.1791 41.1082 24.4988 41.5852C21.996 42.0042 19.7541 42.5188 17.8087 43.0085C16.7551 43.2855 15.7945 43.5476 14.9114 43.7971L14.938 43.7469C14.938 43.7469 10.6059 43.2372 10.3383 43.2345C7.20617 43.2119 1.56861 44.7868 1.24556 47.7149C1.20822 48.1719 1.28071 48.6519 1.45887 49.1275C1.63703 49.6031 1.91738 50.065 2.28389 50.4867C2.65041 50.9085 3.09591 51.2819 3.59496 51.5855C4.094 51.8892 4.63681 52.1172 5.19236 52.2565C5.35414 52.3 5.51683 52.3326 5.67878 52.354C8.24796 52.8498 10.569 51.5728 11.9878 50.2349C13.4065 48.8969 14.6079 44.9552 14.8756 43.9712C15.8118 43.7284 16.81 43.4756 17.9277 43.2111C19.904 42.77 22.1546 42.2922 24.6617 41.9184C25.3343 41.8252 26.0711 41.7446 26.7747 41.6464C25.6789 42.0296 24.189 42.5683 24.065 42.6418C21.587 43.8676 18.0324 47.6535 19.3547 50.7369C19.8135 51.6866 20.6612 52.5252 21.7124 53.0695C22.7636 53.6137 23.9328 53.8193 24.9643 53.6412C25.103 53.6162 25.2382 53.5842 25.3693 53.5453C27.6179 52.9913 28.7489 50.782 29.1272 48.8699C29.5054 46.9579 28.2108 42.4091 27.9188 41.4389C29.5242 41.2122 31.1674 41.0748 32.8392 41.0276C35.9665 40.8663 39.1703 40.9562 42.412 41.2962C42.6022 41.3115 42.7946 41.3493 42.9804 41.3729C42.3873 41.4762 39.1981 42.2277 38.9856 42.3079C36.3201 43.2733 32.2091 46.6671 33.1952 49.7435C33.5375 50.701 34.2854 51.5893 35.2773 52.2164C36.2691 52.8436 37.4254 53.1593 38.4962 53.0953C38.6407 53.0847 38.7825 53.0669 38.921 53.0421C41.2798 52.7075 42.7267 50.6766 43.3612 48.8685C44.096 46.7919 43.1148 41.573 43.0865 41.3863C46.3195 41.7971 49.566 42.3822 52.8063 43.1381C55.2028 43.6923 57.6235 44.3344 60.0618 44.9967C59.2784 45.1383 56.3149 45.8382 56.1179 45.9159C53.448 46.8896 49.3414 50.275 50.3341 53.3657C50.5199 53.8742 50.821 54.3677 51.2183 54.8152C51.6156 55.2626 52.1005 55.6541 52.6422 55.9651C53.1839 56.276 53.7707 56.4995 54.3655 56.6214C54.9603 56.7434 55.5501 56.7611 56.0976 56.6735C58.4519 56.3473 59.9142 54.3139 60.5488 52.5058C61.2613 50.471 60.3327 45.4731 60.2563 45.0571C61.3594 45.3534 62.4625 45.6497 63.5722 45.9602C67.182 46.9765 70.8029 47.9987 74.3775 48.9213C75.6244 49.2403 76.8845 49.5342 78.0695 49.8096C76.9342 50.054 74.8516 50.5352 74.701 50.6054C72.0311 51.5792 67.9356 54.9705 68.9172 58.0553C69.264 59.0119 70.0152 59.8979 71.0086 60.5218C72.002 61.1458 73.158 61.4577 74.2272 61.3903L74.6365 61.3396C76.9908 61.0134 78.4532 58.98 79.0878 57.1719C79.7223 55.3639 79.1525 51.1571 78.9451 49.9744C80.9923 50.4396 83.0241 50.8538 85.0164 51.1826C85.8832 51.3105 86.7653 51.4895 87.63 51.5948C88.4946 51.7 89.2841 51.7869 90.1179 51.8436C91.8053 51.9997 93.3644 52.1307 94.917 52.2474L97.2171 52.3965C95.9782 52.4893 94.0179 52.6601 93.8209 52.7378C90.8997 53.3314 86.1002 55.9949 86.5511 59.0659C86.7319 60.0307 87.347 60.9821 88.2612 61.711C89.1753 62.4399 90.3138 62.8866 91.4262 62.9529L91.8619 62.9591C94.3371 62.9653 96.1947 61.2276 97.1696 59.5788C98.251 57.7828 98.2397 53.0576 98.2366 52.4768C100.108 52.5804 101.93 52.6688 103.624 52.7321C108.999 52.9054 113.454 52.8905 116.531 52.8301C119.608 52.7697 121.398 52.6799 121.398 52.6799C121.717 52.6554 121.983 52.5184 122.137 52.2988C122.29 52.0792 122.32 51.7947 122.219 51.5072C122.177 51.3641 122.101 51.2233 121.997 51.094C121.892 50.9648 121.762 50.85 121.613 50.7571C121.465 50.6642 121.302 50.5952 121.136 50.5547C120.969 50.5141 120.802 50.5029 120.646 50.5218C120.646 50.5218 118.887 50.6602 115.841 50.7691Z" fill="#084005"/>
<path d="M27.3091 41.0936C27.3091 41.0936 25.0608 35.7272 23.0415 33.6894C21.329 31.954 18.6724 30.0496 16.1666 29.8878C15.0474 29.7787 14.0258 30.0555 13.3264 30.6574C12.6269 31.2593 12.3068 32.1371 12.4365 33.0978L12.5108 33.4912C13.4084 36.5743 19.4843 39.6404 22.6898 40.4313C22.9684 40.4935 27.2914 41.1271 27.3091 41.0936Z" fill="#084005"/>
<g opacity="0.2">
<path d="M115.841 50.7691C112.802 50.8923 108.428 50.9934 103.131 50.9148C101.598 50.8943 99.979 50.8495 98.3068 50.798C98.1224 50.1852 96.6803 45.3543 95.0127 43.321C93.5018 41.446 91.0535 39.3626 88.5129 38.9464C87.3827 38.7232 86.2975 38.884 85.4957 39.3934C84.694 39.9028 84.2414 40.7192 84.2375 41.663L84.2698 42.0555C84.7626 45.1274 90.5366 48.7089 93.7016 49.7893C93.8894 49.889 96.3456 50.4642 97.5814 50.7774C96.5661 50.7422 95.5554 50.6988 94.507 50.6461C92.9853 50.5779 91.3753 50.4628 89.8295 50.3068L87.3636 50.0697C86.5232 49.9987 85.7118 49.8466 84.8737 49.7447C83.6509 49.5672 82.3795 49.3209 81.1148 49.0889C80.9343 47.7489 80.3218 43.8091 79.1384 41.9042C77.9549 39.9993 75.7684 37.5831 73.3103 36.8782C72.1925 36.5214 71.0544 36.5362 70.1449 36.9194C69.2354 37.3026 68.6285 38.023 68.4569 38.9231L68.4185 39.2888C68.3696 42.2874 73.64 46.4703 76.6603 47.9565C76.7597 48.0093 77.4227 48.2542 78.2117 48.5552C76.9427 48.2781 75.7399 48.0361 74.4842 47.7338C70.9248 46.9159 67.3237 45.9364 63.6939 44.9845L61.4368 44.4077C61.2956 43.2602 60.6639 39.0099 59.4409 37.0196C58.2178 35.0293 56.0709 32.6985 53.6128 31.9936C52.495 31.6368 51.3569 31.6516 50.4474 32.0348C49.5379 32.418 48.931 33.1384 48.7594 34.0385L48.721 34.4042C48.672 37.4028 53.9424 41.5856 56.9628 43.0719C57.0732 43.1305 57.8622 43.4316 58.7595 43.7687C56.7831 43.2768 54.8466 42.7631 52.8656 42.3866C49.5126 41.6531 46.1571 41.1108 42.8225 40.7634C42.7791 40.365 42.1713 35.3766 40.8005 33.1577C39.5796 31.19 37.4306 28.8366 34.9725 28.1316C34.42 27.9529 33.8562 27.864 33.3135 27.87C32.7708 27.8761 32.2599 27.9769 31.8102 28.1667C31.3606 28.3565 30.9811 28.6317 30.6935 28.9762C30.4059 29.3207 30.2159 29.7278 30.1346 30.1741L30.1162 30.4754C30.0562 33.4681 35.3266 37.651 38.347 39.1372C38.5568 39.2486 41.4388 40.3288 42.4798 40.6887L42.3582 40.6777C39.0917 40.4007 35.8697 40.3727 32.7296 40.594C29.9274 40.7773 27.1791 41.1082 24.4988 41.5852C21.996 42.0042 19.7541 42.5188 17.8087 43.0085C16.7551 43.2855 15.7945 43.5476 14.9114 43.7971L14.938 43.7469C14.938 43.7469 10.6059 43.2372 10.3383 43.2345C7.20617 43.2119 1.56861 44.7868 1.24556 47.7149C1.20822 48.1719 1.28071 48.6519 1.45887 49.1275C1.63703 49.6031 1.91738 50.065 2.28389 50.4867C2.65041 50.9085 3.09591 51.2819 3.59496 51.5855C4.094 51.8892 4.63681 52.1172 5.19236 52.2565C5.35414 52.3 5.51683 52.3326 5.67878 52.354C8.24796 52.8498 10.569 51.5728 11.9878 50.2349C13.4065 48.8969 14.6079 44.9552 14.8756 43.9712C15.8118 43.7284 16.81 43.4756 17.9277 43.2111C19.904 42.77 22.1546 42.2922 24.6617 41.9184C25.3343 41.8252 26.0711 41.7446 26.7747 41.6464C25.6789 42.0296 24.189 42.5683 24.065 42.6418C21.587 43.8676 18.0324 47.6535 19.3547 50.7369C19.8135 51.6866 20.6612 52.5252 21.7124 53.0695C22.7636 53.6137 23.9328 53.8193 24.9643 53.6412C25.103 53.6162 25.2382 53.5842 25.3693 53.5453C27.6179 52.9913 28.7489 50.782 29.1272 48.8699C29.5054 46.9579 28.2108 42.4091 27.9188 41.4389C29.5242 41.2122 31.1674 41.0748 32.8392 41.0276C35.9665 40.8663 39.1703 40.9562 42.412 41.2962C42.6022 41.3115 42.7946 41.3493 42.9804 41.3729C42.3873 41.4762 39.1981 42.2277 38.9856 42.3079C36.3201 43.2733 32.2091 46.6671 33.1952 49.7435C33.5375 50.701 34.2854 51.5893 35.2773 52.2164C36.2691 52.8436 37.4254 53.1593 38.4962 53.0953C38.6407 53.0847 38.7825 53.0669 38.921 53.0421C41.2798 52.7075 42.7267 50.6766 43.3612 48.8685C44.096 46.7919 43.1148 41.573 43.0865 41.3863C46.3195 41.7971 49.566 42.3822 52.8063 43.1381C55.2028 43.6923 57.6235 44.3344 60.0618 44.9967C59.2784 45.1383 56.3149 45.8382 56.1179 45.9159C53.448 46.8896 49.3414 50.275 50.3341 53.3657C50.5199 53.8742 50.821 54.3677 51.2183 54.8152C51.6156 55.2626 52.1005 55.6541 52.6422 55.9651C53.1839 56.276 53.7707 56.4995 54.3655 56.6214C54.9603 56.7434 55.5501 56.7611 56.0976 56.6735C58.4519 56.3473 59.9142 54.3139 60.5488 52.5058C61.2613 50.471 60.3327 45.4731 60.2563 45.0571C61.3594 45.3534 62.4625 45.6497 63.5722 45.9602C67.182 46.9765 70.8029 47.9987 74.3775 48.9213C75.6244 49.2403 76.8845 49.5342 78.0695 49.8096C76.9342 50.054 74.8516 50.5352 74.701 50.6054C72.0311 51.5792 67.9356 54.9705 68.9172 58.0553C69.264 59.0119 70.0152 59.8979 71.0086 60.5218C72.002 61.1458 73.158 61.4577 74.2272 61.3903L74.6365 61.3396C76.9908 61.0134 78.4532 58.98 79.0878 57.1719C79.7223 55.3639 79.1525 51.1571 78.9451 49.9744C80.9923 50.4396 83.0241 50.8538 85.0164 51.1826C85.8832 51.3105 86.7653 51.4895 87.63 51.5948C88.4946 51.7 89.2841 51.7869 90.1179 51.8436C91.8053 51.9997 93.3644 52.1307 94.917 52.2474L97.2171 52.3965C95.9782 52.4893 94.0179 52.6601 93.8209 52.7378C90.8997 53.3314 86.1002 55.9949 86.5511 59.0659C86.7319 60.0307 87.347 60.9821 88.2612 61.711C89.1753 62.4399 90.3138 62.8866 91.4262 62.9529L91.8619 62.9591C94.3371 62.9653 96.1947 61.2276 97.1696 59.5788C98.251 57.7828 98.2397 53.0576 98.2366 52.4768C100.108 52.5804 101.93 52.6688 103.624 52.7321C108.999 52.9054 113.454 52.8905 116.531 52.8301C119.608 52.7697 121.398 52.6799 121.398 52.6799C121.717 52.6554 121.983 52.5184 122.137 52.2988C122.29 52.0792 122.32 51.7947 122.219 51.5072C122.177 51.3641 122.101 51.2233 121.997 51.094C121.892 50.9648 121.762 50.85 121.613 50.7571C121.465 50.6642 121.302 50.5952 121.136 50.5547C120.969 50.5141 120.802 50.5029 120.646 50.5218C120.646 50.5218 118.887 50.6602 115.841 50.7691Z" fill="black"/>
<path d="M27.3091 41.0936C27.3091 41.0936 25.0608 35.7272 23.0415 33.6894C21.329 31.954 18.6724 30.0496 16.1666 29.8878C15.0474 29.7787 14.0258 30.0555 13.3264 30.6574C12.6269 31.2593 12.3068 32.1371 12.4365 33.0978L12.5108 33.4912C13.4084 36.5743 19.4843 39.6404 22.6898 40.4313C22.9684 40.4935 27.2914 41.1271 27.3091 41.0936Z" fill="black"/>
</g>
</svg>
